<mxfile host="app.diagrams.net" modified="2022-10-20T12:29:20.708Z" agent="5.0 (Windows NT 10.0; Win64; x64) AppleWebKit/537.36 (KHTML, like Gecko) Chrome/104.0.5112.124 YaBrowser/22.9.3.886 Yowser/2.5 Safari/537.36" etag="Fo4ql1IFpxT2wJwwo-12" version="20.4.2" type="github">
  <diagram name="Page-1" id="c7558073-3199-34d8-9f00-42111426c3f3">
    <mxGraphModel dx="1394" dy="1104" grid="1" gridSize="10" guides="1" tooltips="1" connect="1" arrows="1" fold="1" page="1" pageScale="1" pageWidth="826" pageHeight="1169" background="none" math="0" shadow="0">
      <root>
        <mxCell id="0" />
        <mxCell id="1" parent="0" />
        <mxCell id="ZB60MOo4yDvPnwNVifFn-96" value="&lt;p style=&quot;margin: 0px; margin-top: 4px; text-align: center; text-decoration: underline;&quot;&gt;&lt;strong&gt;Процесс 1&lt;br&gt;&lt;/strong&gt;&lt;/p&gt;&lt;hr&gt;&lt;p style=&quot;margin: 0px; margin-left: 8px;&quot;&gt;Отправка МХ1&lt;/p&gt;" style="verticalAlign=middle;align=center;overflow=fill;fontSize=12;fontFamily=Helvetica;html=1;rounded=1;fontStyle=1;strokeWidth=3;fillColor=#E6FFCC" vertex="1" parent="1">
          <mxGeometry x="550" y="390" width="110" height="90" as="geometry" />
        </mxCell>
        <mxCell id="ZB60MOo4yDvPnwNVifFn-97" value="Документ &quot;Расходный ордер&quot;" style="whiteSpace=wrap;align=center;verticalAlign=middle;fontStyle=1;strokeWidth=3;fillColor=#FFFFCC" vertex="1" parent="1">
          <mxGeometry x="295" y="330" width="165" height="60" as="geometry" />
        </mxCell>
        <mxCell id="ZB60MOo4yDvPnwNVifFn-98" style="edgeStyle=orthogonalEdgeStyle;rounded=0;orthogonalLoop=1;jettySize=auto;html=1;exitX=0.25;exitY=1;exitDx=0;exitDy=0;entryX=0;entryY=0.5;entryDx=0;entryDy=0;strokeWidth=2;" edge="1" parent="1" source="ZB60MOo4yDvPnwNVifFn-99" target="ZB60MOo4yDvPnwNVifFn-105">
          <mxGeometry relative="1" as="geometry" />
        </mxCell>
        <mxCell id="ZB60MOo4yDvPnwNVifFn-99" value="Документ &quot;Перемещение товаров&quot;&#xa;На склад ВК" style="whiteSpace=wrap;align=center;verticalAlign=middle;fontStyle=1;strokeWidth=3;fillColor=#FFFFCC" vertex="1" parent="1">
          <mxGeometry x="30" y="50" width="150" height="60" as="geometry" />
        </mxCell>
        <mxCell id="ZB60MOo4yDvPnwNVifFn-100" value="API" style="shape=process;whiteSpace=wrap;align=center;verticalAlign=middle;size=0.0475;fontStyle=1;strokeWidth=3;fillColor=#FFCCCC" vertex="1" parent="1">
          <mxGeometry x="480" y="560" width="470" height="50" as="geometry" />
        </mxCell>
        <mxCell id="ZB60MOo4yDvPnwNVifFn-101" style="edgeStyle=orthogonalEdgeStyle;rounded=0;orthogonalLoop=1;jettySize=auto;html=1;exitX=0.5;exitY=0;exitDx=0;exitDy=0;strokeWidth=2;entryX=0.785;entryY=1.06;entryDx=0;entryDy=0;entryPerimeter=0;" edge="1" parent="1" source="ZB60MOo4yDvPnwNVifFn-102" target="ZB60MOo4yDvPnwNVifFn-100">
          <mxGeometry relative="1" as="geometry">
            <mxPoint x="850" y="620" as="targetPoint" />
          </mxGeometry>
        </mxCell>
        <mxCell id="ZB60MOo4yDvPnwNVifFn-102" value="&lt;p style=&quot;margin: 0px; margin-top: 4px; text-align: center; text-decoration: underline;&quot;&gt;&lt;strong&gt;Процесс&amp;nbsp;3&lt;br&gt;&lt;/strong&gt;&lt;/p&gt;&lt;hr&gt;&lt;p style=&quot;margin: 0px; margin-left: 8px;&quot;&gt;Отправка МХ3&amp;nbsp;&lt;/p&gt;&lt;p style=&quot;margin: 0px; margin-left: 8px;&quot;&gt;с кодами&amp;nbsp;&lt;/p&gt;&lt;p style=&quot;margin: 0px; margin-left: 8px;&quot;&gt;маркировок&lt;/p&gt;" style="verticalAlign=middle;align=center;overflow=fill;fontSize=12;fontFamily=Helvetica;html=1;rounded=1;fontStyle=1;strokeWidth=3;fillColor=#E6FFCC" vertex="1" parent="1">
          <mxGeometry x="794" y="675" width="110" height="90" as="geometry" />
        </mxCell>
        <mxCell id="ZB60MOo4yDvPnwNVifFn-103" value="&lt;p style=&quot;margin: 0px; margin-top: 4px; text-align: center; text-decoration: underline;&quot;&gt;&lt;strong&gt;&lt;strong&gt;Процесс&lt;/strong&gt; 2&lt;br&gt;&lt;/strong&gt;&lt;/p&gt;&lt;hr&gt;&lt;p style=&quot;margin: 0px; margin-left: 8px;&quot;&gt;Получение МХ1&lt;/p&gt;" style="verticalAlign=middle;align=center;overflow=fill;fontSize=12;fontFamily=Helvetica;html=1;rounded=1;fontStyle=1;strokeWidth=3;fillColor=#E6FFCC" vertex="1" parent="1">
          <mxGeometry x="550" y="675" width="110" height="90" as="geometry" />
        </mxCell>
        <mxCell id="ZB60MOo4yDvPnwNVifFn-104" value="&lt;p style=&quot;margin: 0px; margin-top: 4px; text-align: center; text-decoration: underline;&quot;&gt;&lt;strong&gt;Процесс 4&lt;/strong&gt;&lt;/p&gt;&lt;hr&gt;&lt;p style=&quot;margin: 0px; margin-left: 8px;&quot;&gt;Получение МХ3&amp;nbsp;&lt;/p&gt;&lt;p style=&quot;margin: 0px; margin-left: 8px;&quot;&gt;с КМ&amp;nbsp;&lt;/p&gt;" style="verticalAlign=middle;align=center;overflow=fill;fontSize=12;fontFamily=Helvetica;html=1;rounded=1;fontStyle=1;strokeWidth=3;fillColor=#E6FFCC" vertex="1" parent="1">
          <mxGeometry x="787" y="390" width="110" height="90" as="geometry" />
        </mxCell>
        <mxCell id="ZB60MOo4yDvPnwNVifFn-105" value="Документ &quot;Приходный ордер&quot;" style="whiteSpace=wrap;align=center;verticalAlign=middle;fontStyle=1;strokeWidth=3;fillColor=#FFFFCC" vertex="1" parent="1">
          <mxGeometry x="110" y="120" width="161" height="60" as="geometry" />
        </mxCell>
        <mxCell id="ZB60MOo4yDvPnwNVifFn-106" value="Документ &quot;Акт расхождения&quot;" style="whiteSpace=wrap;align=center;verticalAlign=middle;fontStyle=1;strokeWidth=3;fillColor=#FFFFCC" vertex="1" parent="1">
          <mxGeometry x="170" y="190" width="160" height="60" as="geometry" />
        </mxCell>
        <mxCell id="ZB60MOo4yDvPnwNVifFn-107" value="Документ &quot;Приемка и размещение&quot;" style="whiteSpace=wrap;align=center;verticalAlign=middle;fontStyle=1;strokeWidth=3;fillColor=#FFFFCC" vertex="1" parent="1">
          <mxGeometry x="295" y="400" width="165" height="60" as="geometry" />
        </mxCell>
        <mxCell id="ZB60MOo4yDvPnwNVifFn-108" value="группа Бринекс" style="text;spacingTop=-5;align=center" vertex="1" parent="1">
          <mxGeometry x="140" y="540" width="30" height="20" as="geometry" />
        </mxCell>
        <mxCell id="ZB60MOo4yDvPnwNVifFn-109" value="Вилкипер" style="text;spacingTop=-5;align=center" vertex="1" parent="1">
          <mxGeometry x="140" y="610.0000000000001" width="30" height="20" as="geometry" />
        </mxCell>
        <mxCell id="ZB60MOo4yDvPnwNVifFn-110" value="Документ &quot;Перемещение товаров&quot;" style="whiteSpace=wrap;align=center;verticalAlign=middle;fontStyle=1;strokeWidth=3;fillColor=#FFFFCC" vertex="1" parent="1">
          <mxGeometry x="227.5" y="260" width="150" height="60" as="geometry" />
        </mxCell>
        <mxCell id="ZB60MOo4yDvPnwNVifFn-111" value="Документ &quot;Приходный ордер&quot;" style="whiteSpace=wrap;align=center;verticalAlign=middle;fontStyle=1;strokeWidth=3;fillColor=#FFFFCC" vertex="1" parent="1">
          <mxGeometry x="295" y="470" width="165" height="60" as="geometry" />
        </mxCell>
        <mxCell id="ZB60MOo4yDvPnwNVifFn-112" value="" style="endArrow=classic;html=1;rounded=0;exitX=1;exitY=0.5;exitDx=0;exitDy=0;entryX=0.355;entryY=-0.033;entryDx=0;entryDy=0;strokeWidth=2;fillColor=#a20025;strokeColor=#000000;entryPerimeter=0;" edge="1" parent="1" source="ZB60MOo4yDvPnwNVifFn-110" target="ZB60MOo4yDvPnwNVifFn-96">
          <mxGeometry width="50" height="50" relative="1" as="geometry">
            <mxPoint x="430" y="310" as="sourcePoint" />
            <mxPoint x="480" y="260" as="targetPoint" />
            <Array as="points">
              <mxPoint x="590" y="290" />
            </Array>
          </mxGeometry>
        </mxCell>
        <mxCell id="ZB60MOo4yDvPnwNVifFn-113" value="" style="endArrow=classic;html=1;rounded=0;strokeWidth=2;exitX=0.168;exitY=1;exitDx=0;exitDy=0;exitPerimeter=0;entryX=0;entryY=0.5;entryDx=0;entryDy=0;" edge="1" parent="1" source="ZB60MOo4yDvPnwNVifFn-105" target="ZB60MOo4yDvPnwNVifFn-106">
          <mxGeometry width="50" height="50" relative="1" as="geometry">
            <mxPoint x="120" y="230" as="sourcePoint" />
            <mxPoint x="170" y="180" as="targetPoint" />
            <Array as="points">
              <mxPoint x="137" y="220" />
            </Array>
          </mxGeometry>
        </mxCell>
        <mxCell id="ZB60MOo4yDvPnwNVifFn-114" value="" style="endArrow=classic;html=1;rounded=0;strokeWidth=2;exitX=0.163;exitY=1.033;exitDx=0;exitDy=0;exitPerimeter=0;entryX=0;entryY=0.5;entryDx=0;entryDy=0;" edge="1" parent="1" source="ZB60MOo4yDvPnwNVifFn-106" target="ZB60MOo4yDvPnwNVifFn-110">
          <mxGeometry width="50" height="50" relative="1" as="geometry">
            <mxPoint x="190" y="300" as="sourcePoint" />
            <mxPoint x="240" y="250" as="targetPoint" />
            <Array as="points">
              <mxPoint x="196" y="290" />
            </Array>
          </mxGeometry>
        </mxCell>
        <mxCell id="ZB60MOo4yDvPnwNVifFn-115" value="" style="endArrow=classic;html=1;rounded=0;strokeWidth=2;exitX=0.15;exitY=1.033;exitDx=0;exitDy=0;exitPerimeter=0;entryX=0;entryY=0.5;entryDx=0;entryDy=0;" edge="1" parent="1" source="ZB60MOo4yDvPnwNVifFn-110" target="ZB60MOo4yDvPnwNVifFn-111">
          <mxGeometry width="50" height="50" relative="1" as="geometry">
            <mxPoint x="250" y="370" as="sourcePoint" />
            <mxPoint x="300" y="320" as="targetPoint" />
            <Array as="points">
              <mxPoint x="250" y="500" />
            </Array>
          </mxGeometry>
        </mxCell>
        <mxCell id="ZB60MOo4yDvPnwNVifFn-116" value="" style="endArrow=classic;html=1;rounded=0;strokeWidth=2;entryX=0;entryY=0.5;entryDx=0;entryDy=0;" edge="1" parent="1" target="ZB60MOo4yDvPnwNVifFn-107">
          <mxGeometry width="50" height="50" relative="1" as="geometry">
            <mxPoint x="250" y="430" as="sourcePoint" />
            <mxPoint x="440" y="480" as="targetPoint" />
          </mxGeometry>
        </mxCell>
        <mxCell id="ZB60MOo4yDvPnwNVifFn-117" value="" style="endArrow=classic;html=1;rounded=0;strokeWidth=2;entryX=0;entryY=0.5;entryDx=0;entryDy=0;" edge="1" parent="1" target="ZB60MOo4yDvPnwNVifFn-97">
          <mxGeometry width="50" height="50" relative="1" as="geometry">
            <mxPoint x="250" y="360" as="sourcePoint" />
            <mxPoint x="440" y="480" as="targetPoint" />
          </mxGeometry>
        </mxCell>
        <mxCell id="ZB60MOo4yDvPnwNVifFn-118" value="" style="endArrow=classic;html=1;rounded=0;strokeWidth=2;exitX=0.5;exitY=1;exitDx=0;exitDy=0;" edge="1" parent="1" source="ZB60MOo4yDvPnwNVifFn-96">
          <mxGeometry width="50" height="50" relative="1" as="geometry">
            <mxPoint x="390" y="530" as="sourcePoint" />
            <mxPoint x="605" y="561" as="targetPoint" />
          </mxGeometry>
        </mxCell>
        <mxCell id="ZB60MOo4yDvPnwNVifFn-119" value="Документ &quot;Перемещение товаров&quot;" style="whiteSpace=wrap;align=center;verticalAlign=middle;fontStyle=1;strokeWidth=3;fillColor=#FFFFCC" vertex="1" parent="1">
          <mxGeometry x="400" y="820" width="150" height="60" as="geometry" />
        </mxCell>
        <mxCell id="ZB60MOo4yDvPnwNVifFn-120" value="" style="endArrow=classic;html=1;rounded=0;strokeWidth=2;entryX=0.5;entryY=1;entryDx=0;entryDy=0;exitX=0.77;exitY=0.04;exitDx=0;exitDy=0;exitPerimeter=0;" edge="1" parent="1" source="ZB60MOo4yDvPnwNVifFn-100" target="ZB60MOo4yDvPnwNVifFn-104">
          <mxGeometry width="50" height="50" relative="1" as="geometry">
            <mxPoint x="745" y="560" as="sourcePoint" />
            <mxPoint x="790" y="520" as="targetPoint" />
            <Array as="points" />
          </mxGeometry>
        </mxCell>
        <mxCell id="ZB60MOo4yDvPnwNVifFn-121" style="edgeStyle=orthogonalEdgeStyle;rounded=0;orthogonalLoop=1;jettySize=auto;html=1;entryX=0.5;entryY=1;entryDx=0;entryDy=0;strokeWidth=2;" edge="1" parent="1" source="ZB60MOo4yDvPnwNVifFn-122" target="ZB60MOo4yDvPnwNVifFn-102">
          <mxGeometry relative="1" as="geometry" />
        </mxCell>
        <mxCell id="ZB60MOo4yDvPnwNVifFn-122" value="Документ &quot;Реализация товаров и услуг&quot;" style="whiteSpace=wrap;align=center;verticalAlign=middle;fontStyle=1;strokeWidth=3;fillColor=#FFFFCC" vertex="1" parent="1">
          <mxGeometry x="810" y="830" width="110" height="60" as="geometry" />
        </mxCell>
        <mxCell id="ZB60MOo4yDvPnwNVifFn-123" style="edgeStyle=orthogonalEdgeStyle;rounded=0;orthogonalLoop=1;jettySize=auto;html=1;exitX=0;exitY=0.5;exitDx=0;exitDy=0;entryX=0.393;entryY=0.033;entryDx=0;entryDy=0;entryPerimeter=0;" edge="1" parent="1" source="ZB60MOo4yDvPnwNVifFn-125" target="ZB60MOo4yDvPnwNVifFn-147">
          <mxGeometry relative="1" as="geometry" />
        </mxCell>
        <mxCell id="ZB60MOo4yDvPnwNVifFn-124" style="edgeStyle=orthogonalEdgeStyle;rounded=0;orthogonalLoop=1;jettySize=auto;html=1;entryX=0.33;entryY=0;entryDx=0;entryDy=0;entryPerimeter=0;strokeWidth=2;" edge="1" parent="1" source="ZB60MOo4yDvPnwNVifFn-125" target="ZB60MOo4yDvPnwNVifFn-151">
          <mxGeometry relative="1" as="geometry">
            <Array as="points">
              <mxPoint x="758" y="50" />
            </Array>
            <mxPoint x="730" y="90" as="targetPoint" />
          </mxGeometry>
        </mxCell>
        <mxCell id="ZB60MOo4yDvPnwNVifFn-125" value="Документ &quot;Реализация товаров и услуг&quot;" style="whiteSpace=wrap;align=center;verticalAlign=middle;fontStyle=1;strokeWidth=3;fillColor=#FFFFCC" vertex="1" parent="1">
          <mxGeometry x="570" y="20" width="150" height="60" as="geometry" />
        </mxCell>
        <mxCell id="ZB60MOo4yDvPnwNVifFn-126" value="" style="endArrow=classic;html=1;rounded=0;strokeWidth=2;entryX=0.5;entryY=0;entryDx=0;entryDy=0;exitX=0.268;exitY=1.02;exitDx=0;exitDy=0;exitPerimeter=0;" edge="1" parent="1" source="ZB60MOo4yDvPnwNVifFn-100" target="ZB60MOo4yDvPnwNVifFn-103">
          <mxGeometry width="50" height="50" relative="1" as="geometry">
            <mxPoint x="390" y="520" as="sourcePoint" />
            <mxPoint x="440" y="470" as="targetPoint" />
            <Array as="points" />
          </mxGeometry>
        </mxCell>
        <mxCell id="ZB60MOo4yDvPnwNVifFn-127" value="" style="endArrow=classic;html=1;rounded=0;strokeWidth=2;exitX=0.5;exitY=1;exitDx=0;exitDy=0;entryX=1;entryY=0.5;entryDx=0;entryDy=0;" edge="1" parent="1" source="ZB60MOo4yDvPnwNVifFn-103" target="ZB60MOo4yDvPnwNVifFn-119">
          <mxGeometry width="50" height="50" relative="1" as="geometry">
            <mxPoint x="750" y="620" as="sourcePoint" />
            <mxPoint x="800" y="570" as="targetPoint" />
            <Array as="points">
              <mxPoint x="605" y="850" />
            </Array>
          </mxGeometry>
        </mxCell>
        <mxCell id="ZB60MOo4yDvPnwNVifFn-128" value="Добавляем КМ в Документ &quot;Перемещение товаров&quot;" style="whiteSpace=wrap;align=center;verticalAlign=middle;fontStyle=1;strokeWidth=3;fillColor=#FFFFCC" vertex="1" parent="1">
          <mxGeometry x="970" y="300" width="150" height="60" as="geometry" />
        </mxCell>
        <mxCell id="ZB60MOo4yDvPnwNVifFn-129" value="Добавляем КМ в Документ &quot;Реализация товаров и услуг&quot;" style="whiteSpace=wrap;align=center;verticalAlign=middle;fontStyle=1;strokeWidth=3;fillColor=#FFFFCC" vertex="1" parent="1">
          <mxGeometry x="970" y="210" width="150" height="60" as="geometry" />
        </mxCell>
        <mxCell id="ZB60MOo4yDvPnwNVifFn-130" value="" style="endArrow=classic;html=1;rounded=0;strokeColor=#000000;strokeWidth=2;entryX=0;entryY=0.5;entryDx=0;entryDy=0;exitX=0.5;exitY=0;exitDx=0;exitDy=0;" edge="1" parent="1" source="ZB60MOo4yDvPnwNVifFn-104" target="ZB60MOo4yDvPnwNVifFn-129">
          <mxGeometry width="50" height="50" relative="1" as="geometry">
            <mxPoint x="826" y="388" as="sourcePoint" />
            <mxPoint x="866" y="190" as="targetPoint" />
            <Array as="points">
              <mxPoint x="840" y="240" />
            </Array>
          </mxGeometry>
        </mxCell>
        <mxCell id="ZB60MOo4yDvPnwNVifFn-131" value="" style="endArrow=classic;html=1;rounded=0;strokeColor=#000000;strokeWidth=2;entryX=0;entryY=0.5;entryDx=0;entryDy=0;exitX=0.75;exitY=0;exitDx=0;exitDy=0;" edge="1" parent="1" target="ZB60MOo4yDvPnwNVifFn-128">
          <mxGeometry width="50" height="50" relative="1" as="geometry">
            <mxPoint x="858.5" y="390" as="sourcePoint" />
            <mxPoint x="886" y="260" as="targetPoint" />
            <Array as="points">
              <mxPoint x="859" y="330" />
            </Array>
          </mxGeometry>
        </mxCell>
        <mxCell id="ZB60MOo4yDvPnwNVifFn-132" value="" style="endArrow=none;dashed=1;html=1;rounded=0;strokeColor=#000000;strokeWidth=2;exitX=1;exitY=0.5;exitDx=0;exitDy=0;" edge="1" parent="1" source="ZB60MOo4yDvPnwNVifFn-100">
          <mxGeometry width="50" height="50" relative="1" as="geometry">
            <mxPoint x="880" y="584" as="sourcePoint" />
            <mxPoint x="1335" y="584" as="targetPoint" />
          </mxGeometry>
        </mxCell>
        <mxCell id="ZB60MOo4yDvPnwNVifFn-133" value="" style="endArrow=none;dashed=1;html=1;strokeWidth=2;rounded=0;strokeColor=#000000;exitX=0;exitY=0.5;exitDx=0;exitDy=0;" edge="1" parent="1" source="ZB60MOo4yDvPnwNVifFn-100">
          <mxGeometry width="50" height="50" relative="1" as="geometry">
            <mxPoint x="630" y="520" as="sourcePoint" />
            <mxPoint x="50" y="585" as="targetPoint" />
          </mxGeometry>
        </mxCell>
        <mxCell id="ZB60MOo4yDvPnwNVifFn-134" value="&lt;p style=&quot;margin: 0px; margin-top: 4px; text-align: center; text-decoration: underline;&quot;&gt;&lt;strong&gt;&lt;strong&gt;Процесс&lt;/strong&gt;&amp;nbsp;&lt;br&gt;&lt;/strong&gt;&lt;/p&gt;&lt;hr&gt;&lt;p style=&quot;margin: 0px; margin-left: 8px;&quot;&gt;Отправка МХ3&lt;/p&gt;&lt;p style=&quot;margin: 0px; margin-left: 8px;&quot;&gt;задание&amp;nbsp;&lt;/p&gt;&lt;p style=&quot;margin: 0px; margin-left: 8px;&quot;&gt;на подбор&amp;nbsp;&lt;/p&gt;&lt;p style=&quot;margin: 0px; margin-left: 8px;&quot;&gt;товара&amp;nbsp;&lt;/p&gt;" style="verticalAlign=middle;align=center;overflow=fill;fontSize=12;fontFamily=Helvetica;html=1;rounded=1;fontStyle=1;strokeWidth=3;fillColor=#E6FFCC" vertex="1" parent="1">
          <mxGeometry x="670" y="390" width="110" height="90" as="geometry" />
        </mxCell>
        <mxCell id="ZB60MOo4yDvPnwNVifFn-135" value="&lt;p style=&quot;margin: 0px; margin-top: 4px; text-align: center; text-decoration: underline;&quot;&gt;&lt;strong&gt;&lt;strong&gt;Процесс&lt;/strong&gt;&amp;nbsp;&lt;br&gt;&lt;/strong&gt;&lt;/p&gt;&lt;hr&gt;&lt;p style=&quot;margin: 0px; margin-left: 8px;&quot;&gt;Получение&amp;nbsp;&lt;span style=&quot;background-color: initial;&quot;&gt;МХ3&lt;/span&gt;&lt;/p&gt;&lt;p style=&quot;margin: 0px 0px 0px 8px;&quot;&gt;задание&amp;nbsp;&lt;/p&gt;&lt;p style=&quot;margin: 0px 0px 0px 8px;&quot;&gt;на подбор&amp;nbsp;&lt;/p&gt;&lt;p style=&quot;margin: 0px 0px 0px 8px;&quot;&gt;товара&amp;nbsp;&lt;/p&gt;" style="verticalAlign=middle;align=center;overflow=fill;fontSize=12;fontFamily=Helvetica;html=1;rounded=1;fontStyle=1;strokeWidth=3;fillColor=#E6FFCC" vertex="1" parent="1">
          <mxGeometry x="670" y="675" width="110" height="90" as="geometry" />
        </mxCell>
        <mxCell id="ZB60MOo4yDvPnwNVifFn-136" value="" style="endArrow=classic;html=1;rounded=0;strokeWidth=2;exitX=0.5;exitY=1;exitDx=0;exitDy=0;" edge="1" parent="1">
          <mxGeometry width="50" height="50" relative="1" as="geometry">
            <mxPoint x="724.5" y="480" as="sourcePoint" />
            <mxPoint x="724.5" y="561" as="targetPoint" />
          </mxGeometry>
        </mxCell>
        <mxCell id="ZB60MOo4yDvPnwNVifFn-137" style="edgeStyle=orthogonalEdgeStyle;rounded=0;orthogonalLoop=1;jettySize=auto;html=1;strokeWidth=2;" edge="1" parent="1" source="ZB60MOo4yDvPnwNVifFn-139" target="ZB60MOo4yDvPnwNVifFn-122">
          <mxGeometry relative="1" as="geometry">
            <mxPoint x="880" y="900" as="targetPoint" />
            <Array as="points">
              <mxPoint x="712" y="940" />
              <mxPoint x="880" y="940" />
            </Array>
          </mxGeometry>
        </mxCell>
        <mxCell id="ZB60MOo4yDvPnwNVifFn-138" style="edgeStyle=orthogonalEdgeStyle;rounded=0;orthogonalLoop=1;jettySize=auto;html=1;entryX=0.5;entryY=1;entryDx=0;entryDy=0;strokeWidth=2;" edge="1" parent="1" source="ZB60MOo4yDvPnwNVifFn-139" target="ZB60MOo4yDvPnwNVifFn-149">
          <mxGeometry relative="1" as="geometry">
            <Array as="points">
              <mxPoint x="690" y="960" />
              <mxPoint x="989" y="960" />
            </Array>
          </mxGeometry>
        </mxCell>
        <mxCell id="ZB60MOo4yDvPnwNVifFn-139" value="Задание на сборку" style="whiteSpace=wrap;align=center;verticalAlign=middle;fontStyle=1;strokeWidth=3;fillColor=#FFFFCC" vertex="1" parent="1">
          <mxGeometry x="637" y="830" width="150" height="60" as="geometry" />
        </mxCell>
        <mxCell id="ZB60MOo4yDvPnwNVifFn-140" value="" style="endArrow=classic;html=1;rounded=0;strokeWidth=2;exitX=0.526;exitY=0.98;exitDx=0;exitDy=0;entryX=0.5;entryY=0;entryDx=0;entryDy=0;exitPerimeter=0;" edge="1" parent="1" source="ZB60MOo4yDvPnwNVifFn-100" target="ZB60MOo4yDvPnwNVifFn-135">
          <mxGeometry width="50" height="50" relative="1" as="geometry">
            <mxPoint x="718.5" y="610" as="sourcePoint" />
            <mxPoint x="719" y="670" as="targetPoint" />
          </mxGeometry>
        </mxCell>
        <mxCell id="ZB60MOo4yDvPnwNVifFn-141" value="" style="endArrow=classic;html=1;rounded=0;strokeWidth=2;exitX=0.5;exitY=1;exitDx=0;exitDy=0;entryX=0.56;entryY=0.017;entryDx=0;entryDy=0;entryPerimeter=0;" edge="1" parent="1" target="ZB60MOo4yDvPnwNVifFn-139">
          <mxGeometry width="50" height="50" relative="1" as="geometry">
            <mxPoint x="724.5" y="765" as="sourcePoint" />
            <mxPoint x="725" y="825" as="targetPoint" />
          </mxGeometry>
        </mxCell>
        <mxCell id="ZB60MOo4yDvPnwNVifFn-142" style="edgeStyle=orthogonalEdgeStyle;rounded=0;orthogonalLoop=1;jettySize=auto;html=1;exitX=0.5;exitY=1;exitDx=0;exitDy=0;entryX=0.5;entryY=0;entryDx=0;entryDy=0;strokeWidth=2;" edge="1" parent="1" source="ZB60MOo4yDvPnwNVifFn-143">
          <mxGeometry relative="1" as="geometry">
            <mxPoint x="836" y="110" as="targetPoint" />
          </mxGeometry>
        </mxCell>
        <mxCell id="ZB60MOo4yDvPnwNVifFn-143" value="Документ &quot;Перемещение товаров&quot;&#xa;со склада ВК" style="whiteSpace=wrap;align=center;verticalAlign=middle;fontStyle=1;strokeWidth=3;fillColor=#FFFFCC" vertex="1" parent="1">
          <mxGeometry x="787" y="20" width="150" height="60" as="geometry" />
        </mxCell>
        <mxCell id="ZB60MOo4yDvPnwNVifFn-146" style="edgeStyle=orthogonalEdgeStyle;rounded=0;orthogonalLoop=1;jettySize=auto;html=1;entryX=0.618;entryY=-0.033;entryDx=0;entryDy=0;entryPerimeter=0;strokeWidth=2;" edge="1" parent="1" source="ZB60MOo4yDvPnwNVifFn-147" target="ZB60MOo4yDvPnwNVifFn-96">
          <mxGeometry relative="1" as="geometry">
            <Array as="points">
              <mxPoint x="565" y="240" />
              <mxPoint x="618" y="240" />
            </Array>
          </mxGeometry>
        </mxCell>
        <mxCell id="ZB60MOo4yDvPnwNVifFn-147" value="Документ &quot;Корректировка реализации&quot;" style="whiteSpace=wrap;align=center;verticalAlign=middle;fontStyle=1;strokeWidth=3;fillColor=#FFFFCC" vertex="1" parent="1">
          <mxGeometry x="490" y="110" width="150" height="60" as="geometry" />
        </mxCell>
        <mxCell id="ZB60MOo4yDvPnwNVifFn-148" style="edgeStyle=orthogonalEdgeStyle;rounded=0;orthogonalLoop=1;jettySize=auto;html=1;entryX=1;entryY=0.5;entryDx=0;entryDy=0;strokeWidth=2;" edge="1" parent="1" source="ZB60MOo4yDvPnwNVifFn-149" target="ZB60MOo4yDvPnwNVifFn-102">
          <mxGeometry relative="1" as="geometry">
            <Array as="points">
              <mxPoint x="1000" y="720" />
            </Array>
          </mxGeometry>
        </mxCell>
        <mxCell id="ZB60MOo4yDvPnwNVifFn-149" value="Документ &quot;Перемещение товаров&quot;" style="whiteSpace=wrap;align=center;verticalAlign=middle;fontStyle=1;strokeWidth=3;fillColor=#FFFFCC" vertex="1" parent="1">
          <mxGeometry x="937" y="830" width="104" height="60" as="geometry" />
        </mxCell>
        <mxCell id="ZB60MOo4yDvPnwNVifFn-151" value="Документ &quot;Расходный ордер&quot;" style="whiteSpace=wrap;align=center;verticalAlign=middle;fontStyle=1;strokeWidth=3;fillColor=#FFFFCC" vertex="1" parent="1">
          <mxGeometry x="700" y="110" width="176" height="60" as="geometry" />
        </mxCell>
        <mxCell id="ZB60MOo4yDvPnwNVifFn-153" value="" style="endArrow=classic;html=1;rounded=0;exitX=0.25;exitY=1;exitDx=0;exitDy=0;entryX=0.682;entryY=0.011;entryDx=0;entryDy=0;entryPerimeter=0;strokeWidth=2;" edge="1" parent="1" source="ZB60MOo4yDvPnwNVifFn-151" target="ZB60MOo4yDvPnwNVifFn-134">
          <mxGeometry width="50" height="50" relative="1" as="geometry">
            <mxPoint x="737" y="330" as="sourcePoint" />
            <mxPoint x="787" y="280" as="targetPoint" />
          </mxGeometry>
        </mxCell>
      </root>
    </mxGraphModel>
  </diagram>
</mxfile>
